PathFileType	4	(X/Y/Z)	D:\TRACE\v60_Jaco2_6-2-23\v60_baseline_4-v60.trc
DataRate	CameraRate	NumFrames	NumMarkers	Units	OrigDataRate	OrigDataStartFrame	OrigNumFrames
100.00	100.00	      38	9	mm	100.00	813	      6500
Frame#	Time	front left toe			Front right toe			aft left toe			aft right toe			Arm			FL body			FR body			AL Body			AR Body			
		X1	Y1	Z1	X2	Y2	Z2	X3	Y3	Z3	X4	Y4	Z4	X5	Y5	Z5	X6	Y6	Z6	X7	Y7	Z7	X8	Y8	Z8	X9	Y9	Z9	

813	8.120	-178.29410	17.70231	-216.38263	199.56300	29.98727	-222.58194	-153.11838	29.12355	419.71518	225.04385	16.18322	391.92508	-95.69892	1210.59863	-338.72632	-74.56724	579.08142	-348.42737	85.28600	578.40186	-356.61597	-25.41340	554.86951	596.17047	131.04480	548.21033	588.52148	
814	8.130	-178.33339	17.68100	-216.30382	199.40198	23.74994	-222.39876	-153.13344	22.78268	419.86530	225.08763	16.20580	391.90579	-96.25770	1210.69128	-338.02533	-74.79091	579.09082	-348.20053	85.69725	578.50305	-356.50323	-25.35074	554.69037	596.27856	131.01256	547.99451	588.76361	
815	8.140	-178.27716	17.40886	-216.21504	198.88554	19.55225	-223.54388	-153.68796	18.00929	418.50964	225.01184	16.11716	391.93637	-96.90509	1210.56934	-337.34167	-74.96401	578.92340	-347.67569	85.44431	578.64465	-356.26355	-25.41672	554.08746	596.90149	131.12871	548.15411	588.97327	
816	8.150	-178.24976	17.29977	-216.15700	199.49315	16.95443	-223.55193	-154.28036	15.68994	419.04245	224.91687	16.14928	391.98883	-97.34708	1210.55054	-337.02365	-75.48985	579.02130	-347.30048	84.49303	578.89996	-355.69391	-25.50905	554.41412	597.19501	130.94463	548.34283	589.28113	
817	8.160	-177.88324	17.37676	-215.90913	201.38835	17.67434	-224.43132	-154.55424	16.59363	418.04529	224.92555	16.42444	392.20981	-98.60208	1210.67554	-336.82028	-76.10558	579.49139	-346.79095	83.98206	579.08044	-355.39200	-25.77762	555.63647	597.59509	130.74185	549.23969	589.75336	
818	8.170	-178.25728	19.10192	-216.25070	199.67323	17.04067	-223.84514	-154.33807	16.64117	419.14957	224.85049	17.74864	391.60205	-99.31486	1211.49023	-336.32803	-75.90127	580.01678	-345.94699	83.13953	579.87158	-354.42926	-25.49055	556.84955	597.99829	131.01012	550.26025	590.24133	
819	8.180	-175.67680	22.49779	-215.17351	200.36473	17.55997	-223.43439	-154.44058	15.98839	418.83548	223.74109	20.50142	393.47272	-100.19116	1212.67163	-336.63412	-76.84261	581.32684	-345.66187	83.19684	581.35345	-354.85223	-25.23293	557.03241	598.80688	130.79251	550.55487	590.49060	
820	8.190	-172.41612	25.35555	-211.31027	199.69809	17.68266	-223.96413	-154.35425	15.95384	418.72620	220.83221	22.98160	397.39130	-102.55453	1213.52026	-336.46008	-77.66782	582.54816	-345.64828	82.79542	582.42145	-354.63562	-25.22754	557.27148	599.11560	131.12184	550.82025	590.59637	
821	8.200	-169.83469	32.21441	-208.73523	198.75737	17.32744	-224.21857	-154.38069	15.77232	418.64917	217.12659	30.15629	398.96671	-103.70451	1214.11389	-335.55295	-77.95754	582.80176	-345.38129	82.59551	582.70972	-354.48798	-25.27778	557.36151	599.22931	130.86420	551.12335	590.68433	
822	8.210	-168.53586	40.67878	-208.27628	199.76727	17.14509	-224.00572	-154.37086	15.86528	418.77982	215.68098	39.42587	399.44641	-104.37049	1214.16077	-334.49854	-78.12483	582.37531	-345.17801	81.79829	582.77081	-354.05118	-25.40868	557.51434	599.34991	130.62485	551.58667	590.81458	
823	8.220	-168.31847	51.13475	-208.52661	199.72835	16.98953	-223.95972	-154.32581	15.82907	418.77722	215.30716	50.72776	398.50003	-104.97572	1213.92273	-333.72519	-77.46459	581.99994	-344.75824	82.26762	582.70636	-354.00891	-25.90451	557.82611	599.33081	130.54408	551.80267	591.42181	
824	8.230	-169.25343	62.08922	-209.77139	199.65144	17.05776	-223.82458	-154.43022	15.68110	418.81909	217.86099	62.14753	397.80722	-105.36004	1213.63916	-333.63782	-77.96886	582.25513	-344.95551	82.47015	582.54932	-353.67706	-26.12704	557.48230	599.31091	130.08691	551.39380	591.52777	
825	8.240	-170.51286	73.29196	-210.45119	199.72446	17.05619	-223.75494	-154.72003	15.49920	418.80356	220.48238	73.40631	397.37396	-105.65136	1212.99243	-333.96201	-77.76781	582.10895	-344.77029	82.61552	582.52936	-353.44437	-27.29341	556.34070	599.67755	129.74634	550.82990	591.93817	
826	8.250	-172.51805	84.71091	-210.71419	199.83902	16.91959	-223.78693	-154.81856	15.22311	418.87003	222.81206	84.49043	397.08057	-105.49648	1212.06812	-333.88974	-77.36739	581.16595	-344.50760	82.58921	582.10022	-353.18542	-28.03098	555.82269	599.72760	128.68375	550.18365	592.24652	
827	8.260	-173.58128	95.68938	-210.31403	199.69189	16.66453	-223.74178	-154.83363	14.99658	418.98538	223.61235	94.83746	397.95566	-105.56065	1211.44507	-333.92456	-77.11561	580.52673	-344.40640	82.34611	581.39764	-352.59277	-28.42781	555.36908	600.00452	128.08279	549.99591	592.35913	
828	8.270	-173.71181	105.81453	-209.52554	199.65164	16.49998	-223.71753	-154.80888	14.92657	419.03662	222.72612	104.75943	399.09680	-105.67687	1210.91565	-333.84525	-77.28488	579.88959	-344.26300	82.49969	580.84479	-352.28143	-28.63286	555.01105	600.34515	127.75813	549.90210	592.66840	
829	8.280	-173.56464	115.09274	-208.64948	199.60966	16.33292	-223.60036	-154.84856	14.96835	419.16891	221.85435	113.93130	400.18173	-106.00281	1210.65662	-333.66611	-77.22701	579.51593	-344.09518	82.26048	580.52454	-352.37469	-29.05223	555.04407	600.53821	127.09528	549.65808	593.26294	
830	8.290	-173.25359	123.20846	-207.70374	199.57237	16.38008	-223.55257	-154.97198	15.12028	419.11325	220.46463	122.22546	401.29050	-106.28369	1210.33887	-333.85953	-77.17834	579.03766	-343.72958	83.20082	579.95978	-351.89719	-29.51999	555.16809	600.78333	127.24268	549.91589	593.58130	
831	8.300	-174.14671	130.32146	-206.74783	199.50818	16.38447	-223.42197	-155.06963	15.14009	419.08694	220.40994	129.49583	402.33054	-106.41288	1209.62952	-333.75592	-77.13586	578.49969	-343.48401	83.34463	579.66986	-351.66299	-30.27379	555.18091	601.08734	126.61182	549.73798	593.88965	
832	8.310	-175.20970	136.06050	-206.08563	199.43430	16.45132	-223.39197	-155.23634	14.92284	419.09726	220.42590	135.32361	402.63162	-106.39067	1208.94128	-334.05853	-76.84644	577.93311	-343.34274	83.12149	578.99725	-351.14240	-30.80221	554.99622	601.45874	126.39198	549.72278	594.16803	
833	8.320	-176.55907	140.61401	-205.35757	199.40395	16.35177	-223.27625	-155.27640	14.74335	419.14578	221.58519	140.38040	403.02454	-105.87628	1208.06433	-334.17343	-76.50922	577.35950	-343.08847	83.82275	578.40948	-350.92291	-31.30467	554.87842	601.69501	125.50819	549.62799	594.79199	
834	8.330	-177.57407	143.77991	-204.94638	199.41882	16.14258	-223.24541	-155.18869	14.71086	419.26422	222.23131	143.50407	403.19666	-105.67982	1207.68103	-334.51315	-76.33865	576.99628	-342.85162	83.98119	577.91528	-350.51456	-31.59632	555.00122	601.96234	125.23638	549.84790	595.15625	
835	8.340	-178.86626	144.69962	-204.09137	199.53531	16.11134	-223.17300	-155.16270	14.78646	419.27563	222.47592	143.04478	403.78586	-105.30778	1207.43250	-334.53720	-76.11314	576.67609	-342.69098	84.19362	577.69958	-350.26712	-31.64192	555.05969	602.47180	124.76803	550.06250	595.40588	
836	8.350	-178.43465	140.73497	-202.98836	199.59993	16.18970	-223.10887	-155.24109	14.84133	419.19995	222.35236	139.97728	405.29047	-105.01088	1207.40942	-334.55966	-75.82451	576.21844	-342.43365	84.67554	577.52948	-349.91339	-32.15760	555.24225	602.69781	124.32251	550.37177	595.65564	
837	8.360	-178.02634	136.16208	-202.11987	199.52505	16.11773	-223.13342	-155.39108	14.78197	419.11700	222.71696	136.22517	406.80951	-104.95924	1207.34595	-334.64874	-75.79087	576.18427	-342.22607	84.41920	577.19055	-349.39465	-32.58978	555.36328	602.93817	123.62324	550.49432	595.92383	
838	8.370	-177.69656	131.31551	-201.40698	199.52679	16.04435	-223.06013	-155.42125	14.65960	419.14352	222.09862	130.97711	408.19263	-104.87847	1207.15930	-334.65573	-74.96062	575.89722	-341.74506	84.39871	577.10822	-349.22940	-33.17410	555.45392	603.24371	123.25187	550.37372	596.55560	
839	8.380	-177.61046	125.79167	-200.67145	199.49838	15.98556	-223.03947	-155.34605	14.63179	419.17960	221.23170	124.95464	409.45569	-104.85872	1206.99548	-334.41162	-75.42497	576.01385	-341.95486	84.46002	577.12634	-348.91525	-33.58254	555.71552	603.20074	123.21572	550.47192	596.74701	
840	8.390	-178.01627	120.24888	-200.07555	199.48323	15.97068	-223.01411	-155.35057	14.68663	419.21921	221.26073	118.02193	410.19424	-104.74490	1207.02185	-334.03146	-74.92016	576.31738	-341.87823	84.87949	577.27502	-348.56641	-33.77229	555.64240	603.30304	122.73379	550.31940	597.07831	
841	8.400	-178.36292	113.51270	-199.82669	199.62675	16.06070	-222.96495	-155.41719	14.73536	419.14465	220.80742	110.09740	410.92303	-104.67542	1207.10828	-333.77661	-74.43571	576.31287	-341.70096	85.59718	577.39191	-348.22809	-34.00057	555.57220	603.40729	122.29633	550.20068	597.25122	
842	8.410	-179.00459	106.70564	-199.59718	199.71768	16.09034	-222.93393	-155.45242	14.68449	419.03207	222.73608	102.47234	411.90460	-104.65697	1207.05676	-333.67953	-74.33893	576.35339	-341.57880	85.95019	577.61169	-347.90955	-34.38252	555.45551	603.57062	122.02119	550.17041	597.59857	
843	8.420	-179.37245	98.96369	-199.60640	199.74840	16.08360	-222.89404	-155.45233	14.43774	419.07117	221.60194	93.82001	412.14041	-104.44830	1207.06104	-333.38623	-74.00397	576.08057	-341.29443	86.08309	577.56091	-347.76965	-34.82975	555.39581	603.56287	121.75412	550.21796	597.82910	
844	8.430	-179.02034	90.79651	-199.26184	199.69037	16.07051	-222.90590	-155.38995	14.30321	419.01208	220.12177	85.17211	412.58688	-104.51390	1207.12366	-333.39301	-73.74268	576.07373	-341.15161	86.04208	577.58099	-347.61908	-34.95749	555.30927	603.56433	121.57175	550.18469	597.97180	
845	8.440	-178.81963	82.23250	-198.90205	199.59579	15.97171	-222.93166	-155.42046	14.29550	418.97751	219.82961	76.64552	412.95074	-104.04716	1207.25549	-333.13705	-73.65192	576.25714	-341.07901	86.08762	577.60205	-347.50168	-35.28234	555.15210	603.97418	121.51433	550.16248	598.13147	
846	8.450	-178.73093	73.33470	-198.54362	199.74017	16.04723	-222.86009	-155.46507	14.41084	418.98636	219.60361	67.84096	413.27655	-103.45088	1207.39771	-332.83279	-73.48130	576.42999	-340.94107	86.93318	577.70410	-347.52451	-35.40115	555.15350	604.10956	121.36877	550.16107	598.35089	
847	8.460	-179.33125	64.72386	-197.89972	199.81284	16.09101	-222.81863	-155.51212	14.53174	419.04410	219.44501	59.23029	413.40842	-102.84376	1207.31140	-332.77448	-72.55682	576.16663	-340.47440	87.34035	577.73566	-347.29712	-35.46456	554.89276	604.49756	121.11249	549.91809	598.57013	
848	8.470	-179.74730	56.15878	-197.47577	199.83521	16.08869	-222.79431	-155.54665	14.44765	419.06229	219.78499	50.90744	413.07965	-102.35352	1207.24158	-332.59912	-73.06435	576.32208	-340.84619	87.54133	577.75116	-347.35477	-35.60807	554.73566	604.55298	120.96158	549.70660	598.67017	
849	8.480	-180.25125	47.94860	-197.10768	199.79857	16.01988	-222.82582	-155.54852	14.25371	419.05438	220.42181	43.07170	412.85995	-102.02475	1207.14246	-332.39676	-72.69028	576.34576	-340.77997	87.72382	577.62152	-347.22049	-35.64835	554.49426	604.65839	121.00263	549.47784	598.91980	
850	8.490	-180.52158	40.47836	-197.21643	199.73399	15.90343	-222.82593	-155.46625	14.23475	418.95474	220.12782	35.34279	412.30707	-102.05813	1207.17969	-332.40646	-72.41338	576.39886	-340.60648	87.94871	577.49579	-346.79468	-35.66104	554.32001	604.78058	121.01492	549.26538	599.13318	
